<?xml version="1.0" standalone="no"?>
<!DOCTYPE svg PUBLIC "-//W3C//DTD SVG 20010904//EN"
 "http://www.w3.org/TR/2001/REC-SVG-20010904/DTD/svg10.dtd">
<svg version="1.0" xmlns="http://www.w3.org/2000/svg"
 width="1536.000000pt" height="1024.000000pt" viewBox="0 0 1536.000000 1024.000000"
 preserveAspectRatio="xMidYMid meet">

<g transform="translate(0.000000,1024.000000) scale(0.100000,-0.100000)"
fill="#000000" stroke="none">
<path d="M3209 7553 l-165 -3 -16 -63 c-8 -34 -39 -147 -68 -252 -28 -104 -58
-217 -66 -250 -8 -33 -23 -87 -34 -120 -23 -74 -95 -338 -199 -730 -44 -165
-116 -437 -161 -605 -113 -424 -150 -567 -150 -585 0 -8 9 -15 20 -15 12 0
143 22 293 49 150 27 387 69 527 92 140 23 257 44 259 46 3 2 31 106 62 231
126 504 240 946 243 949 4 5 216 -224 668 -722 l363 -400 70 -3 c39 -2 162 1
275 7 590 32 722 35 1690 36 987 1 1019 2 1170 23 416 59 720 198 982 450 186
180 323 427 401 721 25 97 31 141 35 267 5 181 -12 267 -80 404 -34 69 -59
102 -132 175 -160 158 -358 242 -664 282 -122 15 -239 17 -1047 18 l-910 0
-23 -70 c-42 -123 -150 -472 -157 -504 l-7 -31 674 0 c842 0 923 -6 1083 -84
93 -46 158 -110 197 -194 29 -61 32 -76 32 -172 1 -85 -3 -118 -23 -175 -48
-141 -169 -284 -316 -372 -180 -108 -381 -158 -674 -170 -149 -6 -154 -5 -147
13 4 10 39 125 78 254 70 236 133 440 206 667 22 67 37 125 34 128 -6 6 -1172
7 -1172 1 0 -3 -20 -69 -44 -148 -24 -79 -65 -215 -91 -303 -26 -88 -60 -198
-75 -245 -16 -47 -42 -132 -60 -190 -17 -58 -51 -168 -75 -245 -23 -77 -57
-187 -74 -244 -17 -58 -33 -106 -35 -108 -3 -3 -78 84 -292 336 -22 27 -121
142 -220 256 -98 114 -230 267 -291 338 -62 72 -113 134 -113 138 0 4 69 60
153 123 83 63 202 154 262 201 61 47 130 100 155 117 25 18 115 87 200 155 85
67 216 170 290 228 74 59 189 150 255 203 l120 97 -749 3 -750 2 -40 -27 c-58
-38 -194 -148 -570 -463 -401 -335 -407 -340 -417 -340 -12 0 -12 2 22 125 17
61 39 142 49 180 19 76 26 100 95 343 26 90 44 166 42 169 -7 6 -682 11 -898
6z"/>
<path d="M9910 7550 l-64 -5 -19 -55 c-11 -30 -85 -237 -164 -460 -80 -223
-178 -497 -218 -610 -40 -113 -89 -248 -108 -300 -75 -199 -310 -880 -305
-885 2 -2 113 -10 248 -20 135 -9 307 -22 382 -30 76 -8 184 -17 241 -21 l103
-7 27 89 c23 77 130 468 202 734 55 208 119 420 126 420 4 0 17 -42 28 -92 36
-159 150 -696 182 -853 35 -174 56 -265 62 -271 8 -9 808 807 1065 1087 69 76
128 136 130 135 2 -2 -8 -30 -21 -62 -55 -131 -386 -1042 -423 -1164 -7 -24
-10 -47 -6 -51 4 -3 104 -21 222 -39 118 -18 337 -56 485 -85 149 -29 288 -56
310 -59 l40 -7 23 93 c27 106 151 549 252 903 65 224 97 338 294 1020 92 321
166 584 166 590 0 3 -244 5 -542 5 l-542 0 -105 -102 c-58 -56 -225 -220 -371
-363 -384 -377 -459 -449 -464 -444 -3 3 -51 205 -107 449 -56 245 -105 448
-108 451 -7 8 -930 16 -1021 9z"/>
<path d="M6785 4994 c-1703 -37 -3057 -160 -3799 -345 -306 -77 -511 -181
-561 -285 -73 -154 219 -305 818 -423 560 -111 1519 -216 2332 -256 720 -35
963 -40 2015 -40 1018 0 1220 4 1900 35 532 25 1255 87 1695 146 228 31 701
115 840 150 376 95 579 201 615 322 11 34 9 44 -9 79 -27 55 -78 94 -186 148
-115 57 -234 95 -432 139 -470 104 -1071 182 -1943 251 -310 24 -653 42 -1245
66 -256 10 -1741 19 -2040 13z m-1765 -304 c113 -18 180 -42 180 -64 0 -35
-44 -136 -60 -136 -8 0 -44 10 -80 21 -80 26 -247 32 -273 10 -20 -16 -22 -44
-4 -59 7 -7 80 -25 162 -42 234 -49 295 -93 295 -214 -1 -137 -119 -215 -342
-224 -129 -5 -212 6 -334 44 l-82 26 20 51 c11 29 26 66 34 84 l13 32 63 -26
c82 -33 178 -53 258 -53 83 0 115 16 115 55 0 28 -4 31 -55 46 -30 9 -102 27
-160 39 -119 25 -186 55 -224 100 -32 39 -40 67 -34 131 4 39 12 57 38 84 80
82 286 124 470 95z m5383 -18 c94 -34 156 -73 208 -130 56 -61 73 -108 73
-202 0 -99 -16 -140 -83 -209 -109 -113 -250 -156 -484 -149 -129 4 -150 8
-228 37 -111 41 -202 114 -241 192 -23 45 -28 67 -28 128 0 91 23 145 91 213
61 61 157 107 294 142 11 3 92 3 180 2 132 -3 170 -7 218 -24z m-4103 -72 l0
-80 -130 0 c-71 0 -131 -1 -132 -2 -1 -2 -4 -120 -7 -263 l-6 -260 -100 -3
c-55 -2 -110 0 -122 3 l-23 5 0 260 0 260 -140 0 -140 0 0 58 c0 31 3 67 6 80
l6 22 394 0 394 0 0 -80z m550 -133 l0 -214 29 -39 c36 -50 85 -68 175 -62 75
5 108 24 137 78 17 31 19 59 19 242 l0 208 124 0 124 0 5 -27 c3 -16 5 -100 5
-187 1 -218 -18 -301 -88 -373 -75 -79 -178 -113 -345 -113 -212 0 -362 68
-418 190 -17 37 -22 73 -26 200 -3 85 -5 190 -3 233 l3 77 129 0 130 0 0 -213z
m1594 184 c216 -71 316 -226 259 -402 -34 -106 -176 -209 -333 -241 -44 -9
-146 -13 -310 -13 l-245 0 -3 343 -2 344 282 -4 c262 -4 288 -6 352 -27z m846
-311 l0 -340 -125 0 -125 0 0 340 0 340 125 0 125 0 0 -340z"/>
<path d="M10061 4519 c-75 -23 -145 -84 -161 -140 -23 -78 18 -152 108 -196
51 -25 67 -28 157 -27 108 0 147 12 204 60 105 88 84 217 -46 281 -48 23 -72
28 -143 30 -47 1 -100 -2 -119 -8z"/>
<path d="M8057 4439 c-4 -46 -7 -128 -7 -183 l0 -98 128 3 c113 4 133 7 177
30 56 28 103 89 111 141 9 54 -42 123 -114 156 -48 22 -74 27 -173 30 l-116 4
-6 -83z"/>
</g>
</svg>
